<?xml version="1.0" standalone="no"?>
<!DOCTYPE svg PUBLIC "-//W3C//DTD SVG 20010904//EN"
 "http://www.w3.org/TR/2001/REC-SVG-20010904/DTD/svg10.dtd">
<svg version="1.0" xmlns="http://www.w3.org/2000/svg"
 width="500.000000pt" height="500.000000pt" viewBox="0 0 500.000000 500.000000"
 preserveAspectRatio="xMidYMid meet">

<g transform="translate(0.000000,500.000000) scale(0.100000,-0.100000)"
fill="#000000" stroke="none">
<path d="M0 2500 l0 -2500 2500 0 2500 0 0 2500 0 2500 -2500 0 -2500 0 0
-2500z m2625 1320 c292 -34 552 -159 766 -370 203 -200 330 -460 370 -756 18
-137 7 -338 -26 -454 -14 -52 -30 -99 -35 -104 -14 -14 -13 2 6 63 42 142 55
401 28 556 -80 464 -401 839 -844 989 -340 114 -739 74 -1041 -105 -66 -40
-85 -47 -74 -29 11 19 140 88 231 124 207 82 407 110 619 86z m-160 -288 c-3
-3 -21 9 -39 27 -30 29 -35 31 -39 15 -3 -13 -5 -9 -6 10 -1 31 2 30 57 -18
l22 -19 2 39 1 39 4 -44 c3 -23 2 -46 -2 -49z m172 41 c-3 -10 -5 -4 -5 12 0
17 2 24 5 18 2 -7 2 -21 0 -30z m173 -46 l0 -41 38 35 37 34 -40 -43 c-22 -24
-41 -37 -42 -30 -7 45 -7 96 -1 92 5 -3 8 -24 8 -47z m-645 -7 c4 -16 14 -34
23 -40 9 -5 12 -10 6 -10 -6 0 -16 6 -21 13 -14 18 -34 79 -23 72 4 -3 11 -19
15 -35z m462 -2 c-3 -7 -5 -2 -5 12 0 14 2 19 5 13 2 -7 2 -19 0 -25z m-390
-10 c-3 -8 -6 -5 -6 6 -1 11 2 17 5 13 3 -3 4 -12 1 -19z m779 -55 c-8 -16
-22 -37 -31 -48 -16 -19 -17 -19 -3 5 8 14 20 35 27 48 6 12 14 22 17 22 2 0
-2 -12 -10 -27z m-1136 -91 l35 -11 -35 6 c-42 7 -50 11 -50 26 0 8 3 9 8 1 4
-5 23 -15 42 -22z m1285 -50 l-38 -37 33 43 c18 24 35 40 38 37 3 -3 -11 -22
-33 -43z m60 -1 c-3 -6 -11 -11 -16 -11 -5 0 -4 6 3 14 14 16 24 13 13 -3z
m-44 -37 c-5 -16 -10 -21 -10 -12 -1 18 10 51 15 45 2 -1 -1 -16 -5 -33z
m-1450 -21 c13 -16 12 -17 -3 -4 -10 7 -18 15 -18 17 0 8 8 3 21 -13z m37 -38
c-3 -3 -9 2 -12 12 -6 14 -5 15 5 6 7 -7 10 -15 7 -18z m-63 -25 c9 -14 52
-12 58 3 4 9 6 9 6 0 1 -7 -8 -17 -19 -23 -23 -12 -45 -3 -75 31 l-20 22 22
-12 c12 -6 25 -16 28 -21z m1616 -53 c-6 -15 -16 -27 -23 -26 -10 0 -10 2 -1
6 7 2 16 21 20 41 4 20 8 30 10 21 2 -8 -1 -28 -6 -42z m-1693 -79 c7 -7 12
-21 12 -32 0 -19 -2 -18 -13 4 -10 19 -21 25 -44 25 -17 0 -29 3 -26 7 7 12
58 9 71 -4z m1792 -53 c-25 -13 -49 -24 -55 -24 -5 0 10 11 35 24 25 13 50 24
55 24 6 0 -10 -11 -35 -24z m-1800 -36 c0 -4 -20 4 -45 18 -25 13 -45 27 -45
29 0 2 20 -6 45 -18 25 -12 45 -25 45 -29z m-310 13 c0 -4 -11 -51 -25 -103
-69 -262 -29 -622 96 -871 233 -464 755 -748 1266 -689 179 21 391 91 518 172
26 17 52 28 58 26 25 -8 -153 -102 -278 -147 -343 -121 -723 -92 -1040 79
-276 149 -495 401 -599 689 -25 71 -58 198 -71 275 -10 59 -7 298 4 348 5 24
12 62 16 84 8 56 37 145 47 145 4 0 8 -4 8 -8z m183 -139 c-7 -2 -19 -2 -25 0
-7 3 -2 5 12 5 14 0 19 -2 13 -5z m2037 -1 c0 -9 -92 -33 -98 -27 -2 2 18 10
45 18 26 8 49 15 51 16 1 1 2 -3 2 -7z m-2005 -37 c-22 -14 -44 -25 -50 -25
-5 0 -3 -5 5 -10 13 -8 13 -10 -1 -10 -34 0 -27 15 18 42 59 34 83 37 28 3z
m9 -54 c4 -5 -3 -7 -14 -4 -23 6 -26 13 -6 13 8 0 17 -4 20 -9z m2009 -110
c-12 -10 -20 -21 -18 -23 3 -2 -10 -2 -28 1 -29 5 -29 6 -7 9 13 2 33 10 44
18 29 20 35 17 9 -5z m-2083 -35 c0 -2 -9 -6 -20 -9 -11 -3 -20 -1 -20 4 0 5
9 9 20 9 11 0 20 -2 20 -4z m53 -13 c-7 -2 -21 -2 -30 0 -10 3 -4 5 12 5 17 0
24 -2 18 -5z m442 -860 c-34 -53 -45 -67 -45 -60 0 10 51 87 57 87 3 0 -3 -12
-12 -27z m1105 -28 c17 -25 27 -45 23 -45 -5 0 -14 10 -22 23 -8 12 -21 32
-29 45 -27 42 -3 22 28 -23z m-1070 0 c-7 -8 -16 -15 -21 -15 -5 0 -1 8 9 18
20 22 31 19 12 -3z m118 -80 c-12 -24 -23 -43 -25 -41 -5 5 32 86 39 86 4 0
-2 -20 -14 -45z m52 9 c0 -8 -7 -17 -16 -21 -11 -4 -14 -13 -9 -32 4 -19 3
-22 -5 -11 -15 22 -12 47 6 54 9 4 14 13 10 22 -3 8 -2 12 4 9 6 -3 10 -13 10
-21z m682 -13 c-3 -21 2 -33 20 -46 20 -15 21 -16 3 -13 -22 4 -41 47 -32 72
10 25 14 19 9 -13z m-540 -33 c-5 -7 -12 -24 -15 -38 l-4 -25 -2 26 c0 14 4
30 11 37 16 16 23 15 10 0z m78 -34 c0 -24 -24 -54 -43 -54 -6 0 -1 7 11 16
24 17 29 52 10 74 -11 12 -10 12 5 1 9 -7 17 -24 17 -37z m290 34 c1 -7 3 -31
5 -53 5 -47 -1 -37 -14 23 -5 24 -5 42 0 42 5 0 9 -6 9 -12z m-157 -119 c-4
-4 -6 22 -3 59 l5 67 3 -59 c2 -32 -1 -63 -5 -67z"/>
</g>
</svg>
