<?xml version="1.0" standalone="no"?>
<!DOCTYPE svg PUBLIC "-//W3C//DTD SVG 20010904//EN"
 "http://www.w3.org/TR/2001/REC-SVG-20010904/DTD/svg10.dtd">
<svg version="1.0" xmlns="http://www.w3.org/2000/svg"
 width="387.000000pt" height="130.000000pt" viewBox="0 0 387.000000 130.000000"
 preserveAspectRatio="xMidYMid meet">

<g transform="translate(0.000000,130.000000) scale(0.100000,-0.100000)"
fill="#000000" stroke="none">
<path d="M135 1180 c-44 -18 -78 -67 -83 -121 -9 -95 50 -159 147 -159 47 0
56 4 94 39 41 39 42 41 42 104 0 56 -4 69 -25 92 -47 51 -118 69 -175 45z"/>
<path d="M430 1045 l0 -145 150 0 150 0 0 145 0 145 -150 0 -150 0 0 -145z"/>
<path d="M1136 1126 c3 -8 12 -17 20 -20 12 -4 12 -2 4 14 -12 23 -32 27 -24
6z"/>
<path d="M1860 1132 c0 -12 19 -26 26 -19 2 2 -2 10 -11 17 -9 8 -15 8 -15 2z"/>
<path d="M1838 1092 l-58 -3 0 -59 c0 -33 4 -60 10 -60 6 0 10 25 10 56 l0 55
47 -3 c52 -3 74 -28 25 -28 -22 0 -33 -6 -37 -20 -7 -22 10 -60 27 -60 9 0 9
3 0 12 -17 17 -15 45 4 52 25 10 36 -3 29 -35 -4 -18 -3 -29 4 -29 6 0 11 20
11 48 0 26 5 53 11 59 14 14 -11 19 -83 15z"/>
<path d="M904 1083 c3 -4 29 -6 56 -4 61 3 68 -17 8 -21 -35 -2 -43 -7 -43
-23 0 -13 8 -21 23 -23 12 -2 22 -7 22 -12 0 -16 -19 -21 -40 -10 -11 6 -20 7
-20 2 0 -7 24 -23 65 -41 6 -2 4 3 -3 11 -10 13 -10 17 3 22 18 7 20 36 3 37
-13 1 -24 4 -43 9 -5 1 4 5 20 9 44 10 55 3 55 -35 0 -19 4 -34 8 -34 5 0 7
22 4 50 -3 40 -1 51 12 56 23 9 25 5 29 -49 5 -68 17 -70 17 -5 l0 56 45 0
c38 0 45 -3 45 -19 0 -14 -7 -19 -30 -19 -20 0 -30 -5 -30 -15 0 -8 5 -15 10
-15 6 0 10 5 10 10 0 6 9 10 20 10 16 0 20 -7 20 -30 0 -16 5 -30 10 -30 6 0
10 25 10 55 l0 55 40 0 c33 0 40 -3 40 -20 0 -16 -7 -20 -30 -20 -29 0 -40
-13 -20 -25 6 -3 10 -1 10 4 0 6 9 11 20 11 16 0 20 -7 20 -30 0 -16 5 -30 11
-30 6 0 9 20 8 51 -2 35 1 53 12 60 9 5 -65 9 -195 9 -115 0 -206 -3 -202 -7z"/>
<path d="M1358 1083 c6 -2 12 -15 12 -28 0 -12 7 -28 15 -35 8 -7 15 -16 15
-21 0 -5 -7 -9 -15 -9 -8 0 -15 -4 -15 -10 0 -16 15 -12 35 10 19 21 37 18 28
-5 -3 -8 0 -15 6 -15 7 0 11 21 11 55 l0 55 45 0 c41 0 45 -2 45 -24 0 -34
-10 -56 -25 -56 -19 0 -27 30 -10 36 23 9 18 23 -6 17 -32 -9 -22 -57 14 -61
15 -2 27 -8 27 -14 0 -6 3 -8 7 -4 4 4 7 19 8 34 0 30 29 43 38 17 4 -9 1 -15
-8 -15 -8 0 -15 -4 -15 -10 0 -19 29 -10 35 10 9 28 -12 52 -38 44 -14 -4 -18
-2 -15 7 3 8 22 15 46 17 l42 3 2 -58 2 -58 3 50 c3 31 10 55 20 63 14 10 -15
12 -153 11 -93 0 -163 -3 -156 -6z m72 -33 c0 -23 -4 -30 -20 -30 -16 0 -20 7
-20 30 0 23 4 30 20 30 16 0 20 -7 20 -30z"/>
<path d="M1701 1068 c1 -18 2 -19 6 -5 6 23 28 16 28 -9 0 -12 -8 -20 -22 -22
-13 -2 -23 -7 -23 -11 0 -11 49 -55 55 -49 3 3 -1 11 -10 18 -19 16 -19 30 -1
30 17 0 28 27 21 51 -4 12 -16 19 -31 19 -19 0 -24 -5 -23 -22z"/>
<path d="M2028 1083 c46 -3 62 -8 62 -18 0 -9 -10 -15 -24 -15 -14 0 -28 -4
-31 -10 -3 -5 -1 -10 4 -10 6 0 11 -7 11 -16 0 -24 -33 -13 -47 16 -7 14 -13
19 -13 12 0 -27 21 -52 45 -52 24 0 30 9 26 39 -2 7 4 11 11 9 7 -3 14 -19 16
-36 5 -51 17 -37 17 21 0 47 3 52 24 55 20 3 22 0 19 -30 -1 -18 2 -34 7 -35
10 -3 12 1 14 42 1 15 7 25 16 25 12 0 15 -13 15 -57 0 -68 8 -67 12 2 l3 50
44 0 c50 0 69 -22 24 -27 -22 -2 -29 -9 -31 -29 -2 -14 4 -31 12 -39 19 -15
20 -7 4 20 -11 17 -10 22 2 30 28 18 40 11 40 -25 0 -19 5 -35 10 -35 6 0 10
25 10 56 0 34 4 53 10 49 6 -3 10 -1 10 4 0 8 -62 10 -192 9 -106 -1 -165 -3
-130 -5z"/>
<path d="M2322 938 c2 -6 10 -14 16 -16 7 -2 10 2 6 12 -7 18 -28 22 -22 4z"/>
<path d="M50 590 c0 -264 9 -298 95 -384 74 -75 166 -111 262 -104 126 10 227
78 286 193 l31 60 4 228 4 227 -341 0 -341 0 0 -220z m600 26 c0 -58 -3 -106
-7 -108 -5 -2 -55 45 -112 104 l-105 108 112 0 112 0 0 -104z"/>
<path d="M901 663 c1 -82 3 -150 5 -153 1 -3 21 -4 43 -2 l41 4 0 149 0 149
-46 0 -45 0 2 -147z"/>
<path d="M1070 660 l0 -150 41 0 41 0 -4 80 c-2 44 0 80 3 80 4 0 33 -36 66
-80 54 -74 60 -79 96 -80 l37 0 0 150 0 150 -35 0 -35 0 0 -85 c0 -47 -4 -85
-8 -85 -5 0 -29 28 -54 63 -73 98 -82 107 -117 107 l-31 0 0 -150z"/>
<path d="M1430 661 l0 -151 84 0 c81 0 140 13 161 34 48 49 60 132 28 188 -31
52 -74 70 -179 76 l-94 5 0 -152z m187 53 c22 -22 25 -32 20 -70 -6 -54 -27
-73 -79 -74 l-38 0 0 85 0 85 35 0 c25 0 44 -8 62 -26z"/>
<path d="M1780 710 c0 -131 13 -164 76 -191 66 -30 127 -20 171 28 l33 34 0
115 0 114 -40 0 -39 0 -3 -107 c-3 -105 -4 -108 -30 -122 -23 -13 -30 -13 -52
-1 -25 13 -26 16 -26 122 l0 108 -45 0 -45 0 0 -100z"/>
<path d="M2192 794 c-34 -14 -48 -31 -55 -69 -8 -43 19 -70 89 -93 45 -14 60
-24 62 -40 3 -19 -1 -22 -33 -22 -20 0 -53 9 -74 20 l-38 19 -12 -25 c-16 -37
-15 -40 27 -57 61 -24 98 -29 141 -17 117 31 105 138 -19 178 -37 11 -56 23
-58 36 -3 16 1 18 40 13 23 -3 54 -8 68 -12 21 -5 27 -2 37 24 l11 31 -52 15
c-57 17 -94 16 -134 -1z"/>
<path d="M1765 371 c10 -38 95 -254 106 -267 5 -6 26 -10 46 -9 l38 1 58 144
c31 80 57 147 57 150 0 3 -19 4 -43 2 l-42 -4 -30 -99 c-17 -54 -34 -98 -39
-96 -4 1 -22 46 -39 99 l-30 96 -44 4 c-42 3 -44 2 -38 -21z"/>
<path d="M900 296 c0 -51 5 -107 11 -124 24 -71 151 -100 218 -51 45 32 51 54
51 170 l0 99 -40 0 -40 0 0 -93 c0 -102 -14 -137 -54 -137 -50 0 -61 21 -64
129 l-4 101 -39 0 -39 0 0 -94z"/>
<path d="M1260 246 l0 -144 27 -5 c16 -3 31 -3 35 0 5 2 8 40 8 84 0 43 4 79
8 79 7 0 98 -114 124 -153 3 -6 22 -12 42 -13 l36 -3 0 149 0 150 -41 0 -41 0
4 -80 c2 -44 1 -80 -2 -80 -3 0 -32 36 -65 80 -56 74 -62 79 -97 80 l-38 0 0
-144z"/>
<path d="M1629 280 c0 -60 -1 -127 -1 -147 -1 -36 -1 -37 38 -37 l39 -1 3 148
3 147 -41 0 -40 0 -1 -110z"/>
<path d="M2122 243 l3 -148 120 0 120 0 3 33 3 33 -77 -2 c-77 -2 -78 -2 -85
24 -7 27 -7 27 54 29 34 0 68 1 75 1 7 -1 12 12 12 33 l0 34 -70 0 c-68 0 -70
1 -70 25 0 23 3 24 78 27 76 3 77 3 80 31 l3 27 -126 0 -126 0 3 -147z"/>
<path d="M2443 243 l2 -148 40 0 c40 0 40 0 41 40 0 35 3 40 26 43 21 3 30 -4
50 -40 22 -40 26 -43 71 -46 l47 -3 -31 50 -31 50 26 31 c32 39 33 79 4 125
-28 42 -39 45 -156 45 l-92 0 3 -147z m183 60 c10 -38 -7 -58 -55 -61 -40 -3
-41 -2 -41 27 0 16 -3 36 -6 45 -5 13 2 16 45 16 46 0 51 -2 57 -27z"/>
<path d="M2817 379 c-9 -5 -24 -24 -33 -41 -28 -54 12 -106 95 -122 42 -8 62
-23 54 -42 -8 -21 -72 -18 -110 5 l-31 20 -16 -24 c-9 -13 -16 -28 -16 -33 0
-19 73 -42 135 -42 54 0 68 4 94 26 64 53 29 125 -74 154 -49 14 -68 36 -44
51 15 9 50 3 91 -16 26 -12 28 -11 43 18 8 16 14 31 13 32 -32 26 -165 35
-201 14z"/>
<path d="M3090 241 l0 -149 38 3 37 2 3 147 3 146 -41 0 -40 0 0 -149z"/>
<path d="M3220 360 c0 -29 2 -30 45 -30 l45 0 0 -118 0 -119 38 2 37 1 3 117
3 117 44 0 c43 0 45 1 45 30 l0 30 -130 0 -130 0 0 -30z"/>
<path d="M3574 287 c44 -82 56 -115 56 -149 l0 -44 38 1 37 1 5 55 c4 39 18
77 53 140 26 47 47 89 47 93 0 3 -17 6 -38 6 -36 0 -39 -2 -67 -60 -17 -32
-32 -59 -35 -60 -3 0 -18 26 -35 58 -29 55 -32 57 -74 60 l-43 3 56 -104z"/>
</g>
</svg>
